# xmcd
#
# Track frame offsets:
#  150
#  10107
#  22377
#  34025
#  44470
#  55070
#  65362
#  74937
#  87572
#  99252
#  112362
#  124100
#  134890
#  144085
#  154187
#  166055
#  176057
#  186205
#
# Disc length: 2610 seconds
#
# Revision: 2
# Processed by: cddbd v1.5.2PL0 Copyright (c) Steve Scherf et al.
# Submitted via: Collectorz.com_Music_Collector 6.11
#
DISCID=0c0a3012
DTITLE=Various Artist - Country Love Songs
DYEAR=2000
DGENRE=Country
TTITLE0=Patsy Cline. Seven Lonely Days
TTITLE1=Patsy Cline. Crazy
TTITLE2=Don Gibson. Oh Lonesome Me
TTITLE3=Don Gibson. Just One Time
TTITLE4=Tony Booth. Lonesome 7-7203
TTITLE5=Tony Booth. The Key's In The Mailbox
TTITLE6=Biff Anderson. Don't She Look Good
TTITLE7=Lefty Frizzell. Have You a Thousand Ways
TTITLE8=Mickey Gilley. San Antonio Rose
TTITLE9=Tompall Glaser. Musical Chairs
TTITLE10=Jean Sheppard. Hearned It All From You
TTITLE11=Jean Sheppard. You're Telling Me Sweet Lies Again
TTITLE12=Floyd Tillman. Sliping Around
TTITLE13=Johnny Wright. Walkin', Talkin', Cryin' Barely Beatin' Broken Heart
TTITLE14=Johnny Wright. Soldier's Last Letter
TTITLE15=Leroy Van Dyke. Walko On By
TTITLE16=Leroy Van Dyke. If A Woman Answers
TTITLE17=Leroy Van Dyke. Be A Good Girl
EXTD=
EXTT0=
EXTT1=
EXTT2=
EXTT3=
EXTT4=
EXTT5=
EXTT6=
EXTT7=
EXTT8=
EXTT9=
EXTT10=
EXTT11=
EXTT12=
EXTT13=
EXTT14=
EXTT15=
EXTT16=
EXTT17=
PLAYORDER=
